<svg width="476" height="66" viewBox="0 0 476 66" fill="none" xmlns="http://www.w3.org/2000/svg">
<path d="M39.2306 42.1281C36.0224 42.1281 33.2371 43.8934 31.7246 46.487C30.9748 47.7729 30.5127 49.2549 30.5127 50.846C30.5127 55.6495 34.4227 59.5639 39.2306 59.5639C44.0385 59.5639 47.9485 55.6495 47.9485 50.846C47.9485 49.2549 47.4908 47.7729 46.7367 46.487C45.2241 43.8934 42.4432 42.1281 39.2306 42.1281Z" fill="#2B59FF"/>
<path d="M100.256 42.1281C97.0478 42.1281 94.2625 43.8934 92.7499 46.487C92.0002 47.7729 91.5381 49.2549 91.5381 50.846C91.5381 55.6495 95.4481 59.5639 100.256 59.5639C105.064 59.5639 108.974 55.6495 108.974 50.846C108.974 49.2549 108.516 47.7729 107.762 46.487C106.249 43.8934 103.469 42.1281 100.256 42.1281Z" fill="#2B59FF"/>
<path d="M126.41 33.4102V29.0512L100.256 21.5756L69.7433 2.89746H21.7948V7.25642H47.9485V11.6154H0V15.9743H52.3075V20.3333H8.71791V24.6922H30.5127V29.0512H21.7948V33.4102H4.35896V37.7691H26.1537V42.1281H21.7948V46.487H8.71791V50.846H26.1537C26.1537 49.3116 26.4675 47.8557 26.9557 46.487C28.7604 41.4219 33.5465 37.7691 39.2306 37.7691C44.919 37.7691 49.7009 41.4219 51.5055 46.487C51.9893 47.8557 52.3075 49.3116 52.3075 50.846H87.1791C87.1791 49.3116 87.4929 47.8557 87.9811 46.487C89.7858 41.4219 94.5719 37.7691 100.256 37.7691C105.944 37.7691 110.726 41.4219 112.531 46.487C113.015 47.8557 113.333 49.3116 113.333 50.846H126.41V46.487H130.769V33.4102H126.41Z" fill="#2B59FF"/>
<path d="M179.192 51.72C175.736 51.72 172.752 50.968 170.24 49.464C167.744 47.96 165.816 45.856 164.456 43.152C163.112 40.448 162.44 37.304 162.44 33.72C162.44 30.136 163.112 26.992 164.456 24.288C165.816 21.584 167.744 19.48 170.24 17.976C172.752 16.472 175.736 15.72 179.192 15.72C183.16 15.72 186.488 16.704 189.176 18.672C191.88 20.64 193.784 23.304 194.888 26.664L188.312 28.488C187.672 26.392 186.592 24.768 185.072 23.616C183.552 22.448 181.592 21.864 179.192 21.864C177 21.864 175.168 22.352 173.696 23.328C172.24 24.304 171.144 25.68 170.408 27.456C169.672 29.232 169.304 31.32 169.304 33.72C169.304 36.12 169.672 38.208 170.408 39.984C171.144 41.76 172.24 43.136 173.696 44.112C175.168 45.088 177 45.576 179.192 45.576C181.592 45.576 183.552 44.992 185.072 43.824C186.592 42.656 187.672 41.032 188.312 38.952L194.888 40.776C193.784 44.136 191.88 46.8 189.176 48.768C186.488 50.736 183.16 51.72 179.192 51.72ZM207.373 51.72C205.517 51.72 203.941 51.368 202.645 50.664C201.365 49.944 200.389 48.992 199.717 47.808C199.061 46.608 198.733 45.288 198.733 43.848C198.733 42.648 198.917 41.552 199.285 40.56C199.653 39.568 200.245 38.696 201.061 37.944C201.893 37.176 203.005 36.536 204.397 36.024C205.357 35.672 206.501 35.36 207.829 35.088C209.157 34.816 210.661 34.56 212.341 34.32C214.021 34.064 215.869 33.784 217.885 33.48L215.533 34.776C215.533 33.24 215.165 32.112 214.429 31.392C213.693 30.672 212.461 30.312 210.733 30.312C209.773 30.312 208.773 30.544 207.733 31.008C206.693 31.472 205.965 32.296 205.549 33.48L199.645 31.608C200.301 29.464 201.533 27.72 203.341 26.376C205.149 25.032 207.613 24.36 210.733 24.36C213.021 24.36 215.053 24.712 216.829 25.416C218.605 26.12 219.949 27.336 220.861 29.064C221.373 30.024 221.677 30.984 221.773 31.944C221.869 32.904 221.917 33.976 221.917 35.16V51H216.205V45.672L217.021 46.776C215.757 48.52 214.389 49.784 212.917 50.568C211.461 51.336 209.613 51.72 207.373 51.72ZM208.765 46.584C209.965 46.584 210.973 46.376 211.789 45.96C212.621 45.528 213.277 45.04 213.757 44.496C214.253 43.952 214.589 43.496 214.765 43.128C215.101 42.424 215.293 41.608 215.341 40.68C215.405 39.736 215.437 38.952 215.437 38.328L217.357 38.808C215.421 39.128 213.853 39.4 212.653 39.624C211.453 39.832 210.485 40.024 209.749 40.2C209.013 40.376 208.365 40.568 207.805 40.776C207.165 41.032 206.645 41.312 206.245 41.616C205.861 41.904 205.573 42.224 205.381 42.576C205.205 42.928 205.117 43.32 205.117 43.752C205.117 44.344 205.261 44.856 205.549 45.288C205.853 45.704 206.277 46.024 206.821 46.248C207.365 46.472 208.013 46.584 208.765 46.584ZM228.157 51V25.08H233.917V31.416L233.293 30.6C233.629 29.704 234.077 28.888 234.637 28.152C235.197 27.416 235.885 26.808 236.701 26.328C237.325 25.944 238.005 25.648 238.741 25.44C239.477 25.216 240.237 25.08 241.021 25.032C241.805 24.968 242.589 24.984 243.373 25.08V31.176C242.653 30.952 241.813 30.88 240.853 30.96C239.909 31.024 239.053 31.24 238.285 31.608C237.517 31.96 236.869 32.432 236.341 33.024C235.813 33.6 235.413 34.288 235.141 35.088C234.869 35.872 234.733 36.76 234.733 37.752V51H228.157ZM257.548 51V16.44H268.732C269.004 16.44 269.564 16.448 270.412 16.464C271.26 16.48 272.076 16.536 272.86 16.632C275.644 16.968 278.004 17.936 279.94 19.536C281.876 21.136 283.348 23.168 284.356 25.632C285.364 28.096 285.868 30.792 285.868 33.72C285.868 36.648 285.364 39.344 284.356 41.808C283.348 44.272 281.876 46.304 279.94 47.904C278.004 49.504 275.644 50.472 272.86 50.808C272.076 50.904 271.26 50.96 270.412 50.976C269.564 50.992 269.004 51 268.732 51H257.548ZM264.172 44.856H268.732C269.164 44.856 269.748 44.848 270.484 44.832C271.22 44.8 271.884 44.728 272.476 44.616C273.98 44.312 275.204 43.608 276.148 42.504C277.108 41.4 277.812 40.072 278.26 38.52C278.724 36.968 278.956 35.368 278.956 33.72C278.956 31.992 278.716 30.352 278.236 28.8C277.772 27.248 277.06 25.936 276.1 24.864C275.14 23.792 273.932 23.112 272.476 22.824C271.884 22.696 271.22 22.624 270.484 22.608C269.748 22.592 269.164 22.584 268.732 22.584H264.172V44.856ZM292.106 21.48V15.72H298.634V21.48H292.106ZM292.106 51V25.08H298.634V51H292.106ZM305.829 51V25.08H311.589V31.416L310.965 30.6C311.301 29.704 311.749 28.888 312.309 28.152C312.869 27.416 313.557 26.808 314.373 26.328C314.997 25.944 315.677 25.648 316.413 25.44C317.149 25.216 317.909 25.08 318.693 25.032C319.477 24.968 320.261 24.984 321.045 25.08V31.176C320.325 30.952 319.485 30.88 318.525 30.96C317.581 31.024 316.725 31.24 315.957 31.608C315.189 31.96 314.541 32.432 314.013 33.024C313.485 33.6 313.085 34.288 312.813 35.088C312.541 35.872 312.405 36.76 312.405 37.752V51H305.829ZM337.189 51.72C334.533 51.72 332.189 51.152 330.157 50.016C328.141 48.864 326.557 47.288 325.405 45.288C324.269 43.272 323.701 40.968 323.701 38.376C323.701 35.544 324.261 33.08 325.381 30.984C326.501 28.888 328.045 27.264 330.013 26.112C331.981 24.944 334.245 24.36 336.805 24.36C339.525 24.36 341.837 25 343.741 26.28C345.645 27.56 347.053 29.36 347.965 31.68C348.877 34 349.197 36.728 348.925 39.864H342.469V37.464C342.469 34.824 342.045 32.928 341.197 31.776C340.365 30.608 338.997 30.024 337.093 30.024C334.869 30.024 333.229 30.704 332.173 32.064C331.133 33.408 330.613 35.4 330.613 38.04C330.613 40.456 331.133 42.328 332.173 43.656C333.229 44.968 334.773 45.624 336.805 45.624C338.085 45.624 339.181 45.344 340.093 44.784C341.005 44.224 341.701 43.416 342.181 42.36L348.709 44.232C347.733 46.6 346.189 48.44 344.077 49.752C341.981 51.064 339.685 51.72 337.189 51.72ZM328.597 39.864V35.016H345.781V39.864H328.597ZM365.768 51.72C363.08 51.72 360.776 51.12 358.856 49.92C356.936 48.72 355.464 47.088 354.44 45.024C353.416 42.96 352.904 40.632 352.904 38.04C352.904 35.416 353.432 33.072 354.488 31.008C355.56 28.944 357.064 27.32 359 26.136C360.936 24.952 363.224 24.36 365.864 24.36C368.92 24.36 371.48 25.136 373.544 26.688C375.624 28.224 376.952 30.328 377.528 33L371 34.728C370.616 33.384 369.944 32.336 368.984 31.584C368.04 30.832 366.968 30.456 365.768 30.456C364.392 30.456 363.264 30.792 362.384 31.464C361.504 32.12 360.856 33.024 360.44 34.176C360.024 35.312 359.816 36.6 359.816 38.04C359.816 40.296 360.312 42.128 361.304 43.536C362.312 44.928 363.8 45.624 365.768 45.624C367.24 45.624 368.36 45.288 369.128 44.616C369.896 43.944 370.472 42.984 370.856 41.736L377.528 43.128C376.792 45.88 375.4 48 373.352 49.488C371.304 50.976 368.776 51.72 365.768 51.72ZM397.881 51C396.089 51.336 394.329 51.48 392.601 51.432C390.889 51.4 389.353 51.104 387.993 50.544C386.649 49.968 385.625 49.048 384.921 47.784C384.281 46.6 383.945 45.4 383.913 44.184C383.881 42.952 383.865 41.56 383.865 40.008V17.88H390.393V39.624C390.393 40.632 390.401 41.544 390.417 42.36C390.449 43.16 390.617 43.8 390.921 44.28C391.497 45.192 392.417 45.688 393.681 45.768C394.945 45.848 396.345 45.784 397.881 45.576V51ZM379.449 30.12V25.08H397.881V30.12H379.449ZM413.915 51.72C411.307 51.72 409.019 51.136 407.051 49.968C405.083 48.8 403.547 47.192 402.443 45.144C401.355 43.08 400.811 40.712 400.811 38.04C400.811 35.336 401.371 32.96 402.491 30.912C403.611 28.848 405.155 27.24 407.123 26.088C409.091 24.936 411.355 24.36 413.915 24.36C416.523 24.36 418.811 24.944 420.779 26.112C422.763 27.28 424.307 28.896 425.411 30.96C426.515 33.008 427.067 35.368 427.067 38.04C427.067 40.728 426.507 43.104 425.387 45.168C424.283 47.216 422.739 48.824 420.755 49.992C418.787 51.144 416.507 51.72 413.915 51.72ZM413.915 45.624C416.011 45.624 417.571 44.92 418.595 43.512C419.635 42.088 420.155 40.264 420.155 38.04C420.155 35.736 419.627 33.896 418.571 32.52C417.531 31.144 415.979 30.456 413.915 30.456C412.491 30.456 411.323 30.776 410.411 31.416C409.499 32.056 408.819 32.944 408.371 34.08C407.939 35.216 407.723 36.536 407.723 38.04C407.723 40.36 408.243 42.208 409.283 43.584C410.339 44.944 411.883 45.624 413.915 45.624ZM432.344 51V25.08H438.104V31.416L437.48 30.6C437.816 29.704 438.264 28.888 438.824 28.152C439.384 27.416 440.072 26.808 440.888 26.328C441.512 25.944 442.192 25.648 442.928 25.44C443.664 25.216 444.424 25.08 445.208 25.032C445.992 24.968 446.776 24.984 447.56 25.08V31.176C446.84 30.952 446 30.88 445.04 30.96C444.096 31.024 443.24 31.24 442.472 31.608C441.704 31.96 441.056 32.432 440.528 33.024C440 33.6 439.6 34.288 439.328 35.088C439.056 35.872 438.92 36.76 438.92 37.752V51H432.344ZM454.5 62.52L459.492 48.792L459.588 52.824L448.308 25.08H455.076L462.66 44.712H461.124L468.66 25.08H475.188L460.548 62.52H454.5Z" fill="black"/>
</svg>
